<?xml version="1.0" encoding="UTF-8" standalone="no"?>
<svg
   xmlns:dc="http://purl.org/dc/elements/1.1/"
   xmlns:cc="http://creativecommons.org/ns#"
   xmlns:rdf="http://www.w3.org/1999/02/22-rdf-syntax-ns#"
   xmlns:svg="http://www.w3.org/2000/svg"
   xmlns="http://www.w3.org/2000/svg"
   xmlns:sodipodi="http://sodipodi.sourceforge.net/DTD/sodipodi-0.dtd"
   xmlns:inkscape="http://www.inkscape.org/namespaces/inkscape"
   viewBox="0 0 82 82"
   version="1.1"
   id="svg20"
   sodipodi:docname="android.svg"
   inkscape:version="0.92.3 (2405546, 2018-03-11)">
  <metadata
     id="metadata24">
    <rdf:RDF>
      <cc:Work
         rdf:about="">
        <dc:format>image/svg+xml</dc:format>
        <dc:type
           rdf:resource="http://purl.org/dc/dcmitype/StillImage" />
      </cc:Work>
    </rdf:RDF>
  </metadata>
  <sodipodi:namedview
     pagecolor="#ffffff"
     bordercolor="#666666"
     borderopacity="1"
     objecttolerance="10"
     gridtolerance="10"
     guidetolerance="10"
     inkscape:pageopacity="0"
     inkscape:pageshadow="2"
     inkscape:window-width="640"
     inkscape:window-height="480"
     id="namedview22"
     showgrid="false"
     inkscape:zoom="2.8780488"
     inkscape:cx="41"
     inkscape:cy="41"
     inkscape:window-x="0"
     inkscape:window-y="25"
     inkscape:window-maximized="0"
     inkscape:current-layer="svg20" />
  <defs
     id="defs4">
    <style
       id="style2">.cls-1{fill:#fff;}</style>
  </defs>
  <title
     id="title6">Android</title>
  <g
     id="Layer_2"
     data-name="Layer 2"
     style="fill:#000000">
    <g
       id="Icons"
       style="fill:#000000">
      <path
         class="cls-1"
         d="M41,82A41,41,0,1,1,82,41,41,41,0,0,1,41,82ZM41,2A39,39,0,1,0,80,41,39,39,0,0,0,41,2Z"
         id="path8"
         style="fill:#000000" />
      <path
         class="cls-1"
         d="M46.44,26.15l.39-.59.39-.58.87-1.3a.35.35,0,1,0-.58-.39l-.93,1.4-.39.58-.4.6a11.67,11.67,0,0,0-8.3,0l-.4-.6-.39-.58-.93-1.4a.35.35,0,1,0-.58.39l.87,1.3.39.58.39.59c-3,1.38-5,4-5,7H51.4C51.4,30.13,49.4,27.52,46.44,26.15Zm-9,4.18a1,1,0,1,1,1-1A1,1,0,0,1,37.46,30.33Zm8.37,0a1,1,0,1,1,1-1A1,1,0,0,1,45.83,30.33Z"
         id="path10"
         style="fill:#000000" />
      <path
         class="cls-1"
         d="M32,34.51h-.15V49.84A2.21,2.21,0,0,0,34.09,52h1.59a2,2,0,0,0-.08.58V57a2.09,2.09,0,1,0,4.18,0V52.63A1.94,1.94,0,0,0,39.7,52h3.89a2,2,0,0,0-.08.58V57a2.09,2.09,0,1,0,4.19,0V52.63A2,2,0,0,0,47.6,52h1.6a2.21,2.21,0,0,0,2.21-2.21V34.51H32Z"
         id="path12"
         style="fill:#000000" />
      <path
         class="cls-1"
         d="M28.39,34.51A2.09,2.09,0,0,0,26.3,36.6v8.94a2.09,2.09,0,0,0,4.18,0V36.6A2.09,2.09,0,0,0,28.39,34.51Z"
         id="path14"
         style="fill:#000000" />
      <path
         class="cls-1"
         d="M54.89,34.51A2.09,2.09,0,0,0,52.8,36.6v8.94a2.09,2.09,0,0,0,4.18,0V36.6A2.09,2.09,0,0,0,54.89,34.51Z"
         id="path16"
         style="fill:#000000" />
    </g>
  </g>
</svg>
