<?xml version="1.0" encoding="UTF-8" standalone="no"?>
<svg
   xmlns:dc="http://purl.org/dc/elements/1.1/"
   xmlns:cc="http://creativecommons.org/ns#"
   xmlns:rdf="http://www.w3.org/1999/02/22-rdf-syntax-ns#"
   xmlns:svg="http://www.w3.org/2000/svg"
   xmlns="http://www.w3.org/2000/svg"
   xmlns:sodipodi="http://sodipodi.sourceforge.net/DTD/sodipodi-0.dtd"
   xmlns:inkscape="http://www.inkscape.org/namespaces/inkscape"
   viewBox="0 0 82 82"
   version="1.1"
   id="svg18"
   sodipodi:docname="googledrive.svg"
   inkscape:version="0.92.3 (2405546, 2018-03-11)">
  <metadata
     id="metadata22">
    <rdf:RDF>
      <cc:Work
         rdf:about="">
        <dc:format>image/svg+xml</dc:format>
        <dc:type
           rdf:resource="http://purl.org/dc/dcmitype/StillImage" />
      </cc:Work>
    </rdf:RDF>
  </metadata>
  <sodipodi:namedview
     pagecolor="#ffffff"
     bordercolor="#666666"
     borderopacity="1"
     objecttolerance="10"
     gridtolerance="10"
     guidetolerance="10"
     inkscape:pageopacity="0"
     inkscape:pageshadow="2"
     inkscape:window-width="640"
     inkscape:window-height="480"
     id="namedview20"
     showgrid="false"
     inkscape:zoom="2.8780488"
     inkscape:cx="41"
     inkscape:cy="41"
     inkscape:window-x="0"
     inkscape:window-y="25"
     inkscape:window-maximized="0"
     inkscape:current-layer="svg18" />
  <defs
     id="defs4">
    <style
       id="style2">.cls-1{fill:#fff;}</style>
  </defs>
  <title
     id="title6">Google Drive</title>
  <g
     id="Layer_2"
     data-name="Layer 2"
     style="fill:#000000">
    <g
       id="Icons"
       style="fill:#000000">
      <path
         class="cls-1"
         d="M41,82A41,41,0,1,1,82,41,41,41,0,0,1,41,82ZM41,2A39,39,0,1,0,80,41,39,39,0,0,0,41,2Z"
         id="path8"
         style="fill:#000000" />
      <polygon
         class="cls-1"
         points="35.66 47.6 35.46 47.6 35.36 47.77 30.49 56.3 30.19 56.81 30.79 56.81 53.53 56.81 53.73 56.81 53.83 56.64 58.7 48.11 59 47.6 58.41 47.6 35.66 47.6"
         id="polygon10"
         style="fill:#000000" />
      <polygon
         class="cls-1"
         points="48.29 45.44 48.39 45.62 48.59 45.62 58.41 45.58 59 45.57 58.7 45.06 47.33 25.36 47.23 25.19 47.03 25.19 37.21 25.23 36.62 25.23 36.91 25.75 48.29 45.44"
         id="polygon12"
         style="fill:#000000" />
      <polygon
         class="cls-1"
         points="40.12 35.43 40.02 35.26 35.07 26.77 34.77 26.26 34.48 26.77 23.1 46.47 23 46.64 23.1 46.81 28.05 55.3 28.35 55.81 28.64 55.3 40.02 35.6 40.12 35.43"
         id="polygon14"
         style="fill:#000000" />
    </g>
  </g>
</svg>
