<?xml version="1.0" encoding="UTF-8" standalone="no"?>
<svg
   xmlns:dc="http://purl.org/dc/elements/1.1/"
   xmlns:cc="http://creativecommons.org/ns#"
   xmlns:rdf="http://www.w3.org/1999/02/22-rdf-syntax-ns#"
   xmlns:svg="http://www.w3.org/2000/svg"
   xmlns="http://www.w3.org/2000/svg"
   xmlns:sodipodi="http://sodipodi.sourceforge.net/DTD/sodipodi-0.dtd"
   xmlns:inkscape="http://www.inkscape.org/namespaces/inkscape"
   viewBox="0 0 82 82"
   version="1.1"
   id="svg14"
   sodipodi:docname="instagram.svg"
   inkscape:version="0.92.3 (2405546, 2018-03-11)">
  <metadata
     id="metadata18">
    <rdf:RDF>
      <cc:Work
         rdf:about="">
        <dc:format>image/svg+xml</dc:format>
        <dc:type
           rdf:resource="http://purl.org/dc/dcmitype/StillImage" />
      </cc:Work>
    </rdf:RDF>
  </metadata>
  <sodipodi:namedview
     pagecolor="#ffffff"
     bordercolor="#666666"
     borderopacity="1"
     objecttolerance="10"
     gridtolerance="10"
     guidetolerance="10"
     inkscape:pageopacity="0"
     inkscape:pageshadow="2"
     inkscape:window-width="640"
     inkscape:window-height="480"
     id="namedview16"
     showgrid="false"
     inkscape:zoom="2.8780488"
     inkscape:cx="41"
     inkscape:cy="41"
     inkscape:window-x="0"
     inkscape:window-y="25"
     inkscape:window-maximized="0"
     inkscape:current-layer="svg14" />
  <defs
     id="defs4">
    <style
       id="style2">.cls-1{fill:#fff;}</style>
  </defs>
  <title
     id="title6">Instagram</title>
  <g
     id="Layer_2"
     data-name="Layer 2"
     style="fill:#000000">
    <g
       id="Icons"
       style="fill:#000000">
      <path
         class="cls-1"
         d="M41,82A41,41,0,1,1,82,41,41,41,0,0,1,41,82ZM41,2A39,39,0,1,0,80,41,39,39,0,0,0,41,2Z"
         id="path8"
         style="fill:#000000" />
      <path
         class="cls-1"
         d="M52,23H30a7,7,0,0,0-7,7V52a7,7,0,0,0,7,7H52a7,7,0,0,0,7-7V30A7,7,0,0,0,52,23Zm2,4.15h.79v6.1l-6.08,0,0-6.1ZM35.87,37.31A6.32,6.32,0,1,1,34.67,41,6.33,6.33,0,0,1,35.87,37.31ZM55.5,52A3.45,3.45,0,0,1,52,55.48H30A3.45,3.45,0,0,1,26.51,52V37.31h5.37a9.84,9.84,0,1,0,18.24,0H55.5Z"
         id="path10"
         style="fill:#000000" />
    </g>
  </g>
</svg>
