<?xml version="1.0" encoding="UTF-8" standalone="no"?>
<svg
   xmlns:dc="http://purl.org/dc/elements/1.1/"
   xmlns:cc="http://creativecommons.org/ns#"
   xmlns:rdf="http://www.w3.org/1999/02/22-rdf-syntax-ns#"
   xmlns:svg="http://www.w3.org/2000/svg"
   xmlns="http://www.w3.org/2000/svg"
   xmlns:sodipodi="http://sodipodi.sourceforge.net/DTD/sodipodi-0.dtd"
   xmlns:inkscape="http://www.inkscape.org/namespaces/inkscape"
   viewBox="0 0 82 82"
   version="1.1"
   id="svg14"
   sodipodi:docname="pintrest.svg"
   inkscape:version="0.92.3 (2405546, 2018-03-11)">
  <metadata
     id="metadata18">
    <rdf:RDF>
      <cc:Work
         rdf:about="">
        <dc:format>image/svg+xml</dc:format>
        <dc:type
           rdf:resource="http://purl.org/dc/dcmitype/StillImage" />
      </cc:Work>
    </rdf:RDF>
  </metadata>
  <sodipodi:namedview
     pagecolor="#ffffff"
     bordercolor="#666666"
     borderopacity="1"
     objecttolerance="10"
     gridtolerance="10"
     guidetolerance="10"
     inkscape:pageopacity="0"
     inkscape:pageshadow="2"
     inkscape:window-width="640"
     inkscape:window-height="480"
     id="namedview16"
     showgrid="false"
     inkscape:zoom="2.8780488"
     inkscape:cx="41"
     inkscape:cy="41"
     inkscape:window-x="0"
     inkscape:window-y="25"
     inkscape:window-maximized="0"
     inkscape:current-layer="svg14" />
  <defs
     id="defs4">
    <style
       id="style2">.cls-1{fill:#fff;}</style>
  </defs>
  <title
     id="title6">Pintrest</title>
  <g
     id="Layer_2"
     data-name="Layer 2"
     style="fill:#000000">
    <g
       id="Icons"
       style="fill:#000000">
      <path
         class="cls-1"
         d="M41,82A41,41,0,1,1,82,41,41,41,0,0,1,41,82ZM41,2A39,39,0,1,0,80,41,39,39,0,0,0,41,2Z"
         id="path8"
         style="fill:#000000" />
      <path
         class="cls-1"
         d="M41,22.89a18,18,0,0,0-7.21,34.49,15.84,15.84,0,0,1,.31-4.13l2.31-9.81a7,7,0,0,1-.57-2.85c0-2.67,1.54-4.66,3.46-4.66a2.41,2.41,0,0,1,2.42,2.7c0,1.65-1,4.11-1.59,6.39A2.78,2.78,0,0,0,43,48.49c3.4,0,5.7-4.38,5.7-9.57C48.67,35,46,32,41.2,32a8.51,8.51,0,0,0-8.84,8.62,5.21,5.21,0,0,0,1.18,3.53.88.88,0,0,1,.26,1c-.09.33-.28,1.13-.37,1.44a.62.62,0,0,1-.9.45c-2.51-1-3.68-3.78-3.68-6.88,0-5.11,4.3-11.25,12.84-11.25,6.86,0,11.37,5,11.37,10.31,0,7.06-3.92,12.34-9.69,12.34A5.15,5.15,0,0,1,39,49.35s-1,4.15-1.26,5a15.06,15.06,0,0,1-1.81,3.85A18,18,0,1,0,41,22.89"
         id="path10"
         style="fill:#000000" />
    </g>
  </g>
</svg>
